<?xml version="1.0" encoding="utf-8"?>

<!-- License Agreement at http://iconmonstr.com/license/ -->

<!DOCTYPE svg PUBLIC "-//W3C//DTD SVG 1.1//EN" "http://www.w3.org/Graphics/SVG/1.1/DTD/svg11.dtd">
<svg version="1.1" xmlns="http://www.w3.org/2000/svg" xmlns:xlink="http://www.w3.org/1999/xlink" x="0px" y="0px"
	 width="512px" height="512px" viewBox="0 0 512 512" enable-background="new 0 0 512 512" xml:space="preserve">
<path id="magic-6-icon" d="M336.565,130.786c9.96-3.041,17.756-10.838,20.799-20.799c3.042,9.962,10.836,17.758,20.798,20.799
	c-9.962,3.043-17.756,10.839-20.798,20.8C354.321,141.625,346.525,133.829,336.565,130.786z M227.393,244.963
	c5.705-18.676,20.321-33.292,38.997-38.997c-18.675-5.704-33.292-20.319-38.997-38.996c-5.704,18.677-20.321,33.291-38.996,38.996
	C207.072,211.671,221.689,226.287,227.393,244.963z M387.167,105.239c3.472-11.364,12.366-20.259,23.729-23.729
	c-11.364-3.471-20.258-12.365-23.729-23.729c-3.47,11.362-12.364,20.257-23.729,23.729
	C374.803,84.981,383.696,93.876,387.167,105.239z M317.919,116.886c4.301-14.082,15.321-25.104,29.402-29.404
	C333.24,83.18,322.22,72.16,317.918,58.078c-4.3,14.081-15.322,25.104-29.404,29.403
	C302.596,91.782,313.618,102.805,317.919,116.886z M263.573,223.718c-8.876,4.609-15.892,12.173-19.834,21.441
	c35.258,8.855,31.18,24.905,6.14,33.396c-40.569,13.757-104.495,13.984-144.966,0c-25.171-8.697-25.138-24.185,0-31.739
	c27.667-8.315,67.575-10.735,102.737-7.512c-9.174-14.416-32.582-28.174-56.978-26.893C97.026,216.553,50,233.314,50,262.686
	c0,72.497,254.794,72.528,254.794,0C304.794,245.249,288.237,232.263,263.573,223.718z M462,300.521l-31.562,31.562L215.523,117.17
	l31.562-31.563L462,300.521z M284.441,141.807l-37.356-37.356l-12.719,12.72l37.355,37.355L284.441,141.807z M283.481,433.291
	c-36.422,28.463-176.688,27.34-214.077,0c19.963-41.254,17.604-86.119,6.011-119.135c53.872,24.839,153.46,24.43,205.988-0.945
	C269.17,348.076,263.328,389.838,283.481,433.291z M257.75,427.778c-7.875-20.625-13.312-60.021-6.312-87.188l-14.65,3.231
	c-4.917,22.666-2.129,62.095,7.038,87.595C247.105,432.113,255.229,429.99,257.75,427.778z"/>
</svg>
